<?xml version="1.0" encoding="UTF-8"?>
<!DOCTYPE svg PUBLIC "-//W3C//DTD SVG 1.1//EN" "http://www.w3.org/Graphics/SVG/1.1/DTD/svg11.dtd">
<!-- Creator: CorelDRAW 2017 -->
<svg xmlns="http://www.w3.org/2000/svg" xml:space="preserve" width="441mm" height="143mm" version="1.1" style="shape-rendering:geometricPrecision; text-rendering:geometricPrecision; image-rendering:optimizeQuality; fill-rule:evenodd; clip-rule:evenodd"
viewBox="0 0 44100 14300"
 xmlns:xlink="http://www.w3.org/1999/xlink">
 <defs>
  <style type="text/css">
   <![CDATA[
    .fil0 {fill:#1C1B17}
    .fil1 {fill:#2B2A29;fill-rule:nonzero}
   ]]>
  </style>
 </defs>
 <g id="Слой_x0020_1">
  <metadata id="CorelCorpID_0Corel-Layer"/>
  <path class="fil0" d="M56410.93 6338.41c65.97,-38.46 94,-38.46 84.11,0 -145.98,502.46 -92.05,827.53 -92.05,827.53 9.73,58.85 54.88,174.44 128.31,225.93 330.42,231.69 622.51,93.95 670.15,11.93 244.74,-421.62 195.44,-816.05 195.44,-816.05 13.92,-56.77 89.17,16.63 124.2,68.49 216.94,353.34 217.2,681.57 129.69,984.68 -61.02,211.35 -106.91,270.12 -262.55,597.4 -88.74,155.1 -137.99,337.83 -147.76,548.27l-990.99 0c14.69,-382.01 2.85,-740.42 -281.62,-1075.21 -358.07,-465.57 -56.11,-1047 443.07,-1372.97zm828.47 9260.2l-989.76 0 0 -6142.46 989.76 0 0 6142.46zm3017.84 -5755.28c50.63,-40.16 102.95,-78.22 156.82,-114.03 404.98,-269.26 875.41,-373.44 1356.97,-373.44 628.25,0 1211.22,189.49 1612.44,694.93 428.53,539.89 521.53,1327.04 521.53,1995.5l0 3552.32 -989.91 0 0 -3562.41c0,-400 -40.4,-1038.85 -314.49,-1352.18 -217.79,-248.94 -500.76,-338.29 -824.59,-338.29 -383.49,0 -769.03,83.57 -1037.12,378.46 -271.71,298.92 -416.05,671.79 -482.87,1065.74l0 3808.68 -989.91 0 0 -6142.46 991.64 0 -0.51 387.18zm9223.22 -21.16l0 -2761.99 989.86 0 0 8538.43 -975.5 0 -3.95 -325.58c-71.7,48.9 -146.03,93.86 -222.52,134.97 -392.82,211.02 -829.51,295.96 -1272.82,295.96 -733.18,0 -1347.87,-283.53 -1785.74,-878.23 -465.27,-631.9 -608.87,-1428.71 -608.87,-2198.07l0 -105.26c0,-786.48 142.99,-1603.61 608.17,-2256.21 435.01,-610.28 1050.49,-910.33 1796.52,-910.33 453.26,0 893.15,98.08 1282.54,335.9 66.17,40.41 130.32,83.95 192.31,130.41zm3570.29 2884.32l0 26.42c0,531.12 134.17,1023.33 478.18,1436.46 306.9,368.61 687.98,544.77 1167.2,544.77 275.27,0 545.19,-51.76 800.66,-154.48 223.55,-89.91 435.15,-215.86 600.65,-393.05l304.84 -326.42 561.19 812.53 -191.32 211.17c-238.06,262.73 -533.74,460.34 -855.89,605.3 -382.31,172.08 -803.43,234.77 -1220.13,234.77 -753.82,0 -1386.63,-301.45 -1885.27,-862.65 -528.2,-594.46 -749.93,-1321.68 -749.93,-2108.4l0 -320.74c0,-801.68 211.27,-1556.59 741.3,-2171.93 501.73,-582.5 1149.27,-884.38 1918.96,-884.38 662.59,0 1255.51,214.36 1705.39,712.57 465.84,515.82 629.05,1181.66 629.05,1862.51l0 775.55 -4004.88 0zm7508.49 -1100.32l1545.33 -2150.02 1227.78 0 -2164 3001.12 2264.05 3141.34 -1222.01 0 -1655.37 -2291.22 -1650.73 2291.22 -1222.29 0 2263.96 -3141.34 -2163.91 -3001.12 1227.45 0 1549.74 2150.02zm-11078.78 2227.54l0 -2431.11c-110.75,-293.29 -280.06,-550.21 -514.41,-760.25 -261.1,-233.98 -625.95,-296.62 -965.55,-296.62 -440.54,0 -768.93,163.35 -1007.51,537.87 -305.2,479.07 -392.21,1080.33 -392.21,1638.8l0 105.26c0,534.21 79.02,1131.35 382.69,1584.13 242.13,361.15 580.2,502.35 1007.03,502.35 338.58,0 685.83,-61.61 970.06,-255.75 233.74,-159.54 405.87,-367.05 519.9,-624.68zm3663.68 -2117.22l2914.31 0.19c-27.22,-350.82 -133.27,-679.68 -364.67,-955.66 -253.59,-302.39 -585.59,-415.29 -972.59,-415.29 -442,0 -814.17,140.35 -1116.61,468.13 -244.77,265.28 -385.6,560.63 -460.44,902.63zm23490.18 -985.69c0,-712.57 -136.05,-1455.7 -597.94,-2021.49 -420.04,-514.55 -998.97,-694.27 -1645.71,-694.27 -643.49,0 -1218.01,179.45 -1634.01,693.05 -459.13,566.78 -593.67,1311.03 -593.67,2022.71l0 1180.01c0,714.03 133.84,1464.71 595.87,2032.85 418.54,514.69 996.81,693.66 1642.51,693.66 643.83,0 1222.2,-177.28 1639.66,-690.84 461.52,-567.81 593.29,-1322.58 593.29,-2035.67l0 -1180.01zm-6767.06 4917.04l-1123.23 0 0 -8643.36 1123.23 0 0 8643.36zm7205.39 -1216.33l1371.38 1337.96 -828.39 743.5 -1341.3 -1286.62c-212.24,141.94 -441.67,256.12 -682.63,341.38 -382.03,135.2 -785.93,192.78 -1190.34,192.78 -974.7,0 -1841.24,-317.74 -2482.02,-1072.22 -662.13,-779.64 -884.84,-1776.21 -884.84,-2777.48l0 -1169.26c0,-998.87 221.63,-1992.63 878.08,-2773.25 637.4,-757.91 1503.33,-1076.44 2478.08,-1076.44 974.94,0 1838.58,320.93 2479.17,1074.84 662.41,779.54 887.75,1773.11 887.75,2774.85l0 1169.26c0,536.84 -65.42,1076.73 -232.47,1588.41 -107.7,329.94 -256.27,645.94 -452.47,932.29zm3215.49 4275.73l-14454.62 0 0 -14261.75 14454.62 0 0 14261.75zm-42291.13 3932.38l596.56 183.24 -12.73 46.73c-68.69,251.73 -189.21,490.92 -400.28,652.41 -205.25,157.02 -452.92,214.53 -707.86,214.53 -340.71,0 -637.01,-113.26 -872.39,-363.03 -253.89,-269.48 -340.77,-622.03 -340.77,-984.35 0,-371.45 82.52,-744.96 342.37,-1023.86 240.9,-258.54 551.08,-368.59 901.68,-368.59 299.45,0 574.99,83.13 794.94,290.89 139.62,131.9 223.25,311.23 274.98,493.57l14.3 50.24 -609.29 144.84 -11.28 -49.08c-26.12,-113.66 -79.62,-211.83 -171.27,-285.02 -92.29,-73.7 -200.54,-103.68 -317.95,-103.68 -169.51,0 -311.34,57.96 -422.94,186.45 -138.62,159.53 -164.64,424.24 -164.64,626.24 0,204.6 23.31,492.22 162.03,655.81 108.9,128.35 247.07,187.76 414.92,187.76 121.88,0 229.21,-37 320.71,-118.02 108.59,-96.21 165.4,-246.56 196.93,-384.59l11.98 -52.49zm2078.75 -1065.52l0 466.41 1275.38 0 0 531.08 -1275.38 0 0 591.04 1421.42 0 0 531.18 -2038.03 0 0 -2650.83 1988.15 0 0 531.12 -1371.54 0zm2910.48 1157.82l0 961.89 -616.61 0 0 -2650.83 875.91 0c129.9,0 260.9,1.55 390.55,9.62 74.35,4.61 161.78,10.88 233.88,30.08 161.68,43.02 291.89,135.37 393.71,267.82 117.06,152.26 158.22,338.41 158.22,527.42 0,143.59 -22.75,290.28 -90.74,418.33 -56.6,106.74 -132.11,199.89 -231.67,269.33 -86.97,60.67 -181.63,105.84 -285.52,128.59 -75.9,14.99 -154.51,23.01 -231.67,28.33 -103.43,7.16 -207.57,9.42 -311.24,9.42l-284.82 0zm4119.44 -456.43c108.09,46.88 203.34,115.11 276.99,211.57 93.1,121.93 134.92,262.66 134.92,415.72 0,126.74 -29.94,247.31 -85.88,361.07 -55.86,113.56 -133.91,209.77 -237.64,282.51 -109.25,76.66 -237.09,115.51 -368.8,129.9 -73.14,8.02 -149.85,10.18 -223.4,12.39 -134.26,4.06 -268.82,5.16 -403.13,5.16l-918.67 0 0 -2650.83 1070.08 0c89.08,0 178.47,1.35 267.42,6.22 64.07,3.5 129.54,8.66 192.81,19.44 103.13,17.55 199.59,54.2 286.28,112.96 87.63,59.46 157.17,137.57 210.91,228.57 58.56,99.06 85.38,208.6 85.38,323.51 0,128 -34.84,247.27 -104.18,354.86 -49.03,76 -110.35,138.17 -183.09,186.95zm1869.48 337.16l955.02 -1569.67 591.09 0 0 2650.83 -580.97 0 0 -1544.8 -955.17 1544.8 -590.94 0 0 -2650.83 580.97 0 0 1569.67zm4151.92 26.97l596.5 183.24 -12.78 46.73c-68.58,251.73 -189.16,490.97 -400.17,652.41 -205.31,157.02 -452.98,214.53 -707.91,214.53 -340.72,0 -636.96,-113.26 -872.4,-363.03 -253.88,-269.48 -340.77,-621.97 -340.77,-984.35 0,-371.45 82.48,-744.96 342.38,-1023.86 240.89,-258.54 551.03,-368.59 901.67,-368.59 299.45,0 575,83.13 794.94,290.89 139.58,131.9 223.2,311.23 275.04,493.52l14.29 50.29 -609.39 144.84 -11.28 -49.14c-26.07,-113.65 -79.57,-211.77 -171.21,-284.96 -92.3,-73.75 -200.54,-103.68 -317.91,-103.68 -169.55,0 -311.38,57.91 -423.04,186.45 -138.57,159.53 -164.64,424.24 -164.64,626.24 0,204.6 23.36,492.22 162.09,655.81 108.89,128.35 247.06,187.76 414.91,187.76 121.88,0 229.22,-37 320.67,-118.02 108.64,-96.21 165.44,-246.61 197.03,-384.59l11.98 -52.49zm2078.69 -592.04l904.59 0 0 -1004.6 616.61 0 0 2650.83 -616.61 0 0 -1115.1 -904.59 0 0 1115.1 -616.6 0 0 -2650.83 616.6 0 0 1004.6zm3121.25 14.29l638.12 0c162.59,0 330.99,19.5 483.81,77.41 146.39,55.5 261.34,154.06 349.53,282.76 95.76,139.88 138.78,297.7 138.78,466.45 0,172.92 -42.92,335.1 -144.9,475.88 -83.57,115.36 -189.85,215.33 -325.47,265.17 -149.45,54.89 -345.03,64.27 -502.95,64.27l-1253.53 0 0 -2650.83 616.61 0 0 1018.89zm1805.91 -1018.89l616.56 0 0 2650.83 -616.56 0 0 -2650.83zm2173.3 1569.67l954.97 -1569.67 591.14 0 0 2650.83 -581.01 0 0 -1544.8 -955.17 1544.8 -590.94 0 0 -2650.83 581.01 0 0 1569.67zm741.95 -2307.11l338.46 0 -4.72 54.35c-13.43,154.36 -66.92,296.8 -182.13,403.48 -113.86,105.49 -256.14,148.1 -409.81,148.1 -153.91,0 -296.35,-42.41 -410.4,-148.1 -115.21,-106.68 -168.7,-249.12 -182.14,-403.48l-4.71 -54.35 338.46 0 4.56 44.97c5.87,57.61 23.66,114.81 69.19,153.31 49.28,41.62 122.88,51.09 185.04,51.09 62.02,0 135.27,-9.57 184.45,-51.09 45.52,-38.5 63.32,-95.7 69.18,-153.31l4.57 -44.97zm3995.55 2857.14l893.81 0 0 -2119.65 616.66 0 0 2119.65 213.77 0 0 1086.88 -531.13 0 0 -555.75 -1809.77 0 0 -2650.78 616.66 0 0 2119.65zm3129.53 -1588.58l0 466.41 1275.38 0 0 531.08 -1275.38 0 0 591.09 1421.42 0 0 531.13 -2038.04 0 0 -2650.78 1988.15 0 0 531.07 -1371.53 0zm2910.43 473.53l904.58 0 0 -1004.6 616.66 0 0 2650.78 -616.66 0 0 -1115.05 -904.58 0 0 1115.05 -616.56 0 0 -2650.78 616.56 0 0 1004.6zm3063.99 -473.53l-755.28 0 0 -531.07 2123.56 0 0 531.07 -751.72 0 0 2119.71 -616.56 0 0 -2119.71zm2753.41 1157.82l0 961.89 -616.61 0 0 -2650.78 875.91 0c129.9,0 260.9,1.55 390.6,9.57 74.35,4.67 161.73,10.88 233.83,30.08 161.68,43.02 291.93,135.37 393.71,267.87 117.01,152.26 158.22,338.42 158.22,527.42 0,143.54 -22.81,290.23 -90.74,418.28 -56.65,106.74 -132.1,199.89 -231.72,269.33 -86.24,60.11 -181.54,106.03 -284.62,128.34l-0.85 0.2c-75.91,15.04 -154.52,23.06 -231.62,28.42 -103.48,7.18 -207.61,9.38 -311.29,9.38l-284.82 0zm-35914.85 -1157.82l0 626.69 230.77 0c82.27,0 166.2,-1.75 248.12,-9.93 43.12,-4.31 98.62,-11.12 139.17,-27.02 56.76,-22.21 102.98,-56.55 137.07,-107.23 34.8,-51.6 49.64,-108.85 49.64,-170.91 0,-73.75 -18.75,-141.54 -68.54,-196.99 -48.23,-53.79 -107.49,-85.17 -178.43,-98.21 -41.91,-7.72 -88.89,-10.08 -131.4,-12.08 -76.1,-3.56 -152.66,-4.32 -228.87,-4.32l-197.53 0zm2910.43 -7.11l0 487.76 287.23 0c80.71,0 161.58,-0.35 242.3,-2.31 40.71,-1 84.87,-1.55 125.34,-6.26 65.88,-7.72 130.5,-28.73 178.28,-76.56 44.61,-44.57 60.76,-100.72 60.76,-162.94 0,-58.61 -13.54,-114.01 -52.89,-158.72 -40.81,-46.43 -102.18,-65.43 -161.79,-72.45 -45.77,-5.37 -97.26,-5.41 -143.39,-6.37 -96.65,-1.9 -193.47,-2.15 -290.18,-2.15l-245.66 0zm0 1011.72l0 583.92 427.35 0c74.95,0 150.26,-0.65 225.11,-4.06 37.6,-1.65 81.72,-3.31 118.72,-10.48 62.37,-11.98 116.61,-38.25 158.98,-86.13 45.47,-51.39 59.91,-117.01 59.91,-184.14 0,-59.82 -12.33,-117.12 -46.88,-166.81 -33.44,-48.12 -81.27,-79.15 -136.22,-98.26 -44.51,-15.44 -107.69,-21.1 -154.51,-24.92 -94.75,-7.62 -191.21,-9.12 -286.27,-9.12l-366.19 0zm12430.35 583.92l452.27 0c66.58,0 133.66,-1.05 200.09,-5.62 39.91,-2.75 83.97,-6.56 122.93,-16.09 57.25,-13.94 104.28,-47.38 143.19,-90.94 42.86,-48.08 60.86,-104.48 60.86,-168.61 0,-87.13 -26.32,-162.08 -99.17,-213.12 -96.31,-67.58 -294.04,-75.25 -407.14,-75.25l-473.03 0 0 569.63zm20574.07 -1588.53l0 626.69 230.82 0c82.27,0 166.19,-1.7 248.12,-9.93 43.11,-4.31 98.61,-11.12 139.17,-26.97 56.8,-22.21 102.93,-56.6 137.02,-107.28 34.79,-51.6 49.69,-108.8 49.69,-170.91 0,-73.75 -18.81,-141.49 -68.59,-196.99 -48.23,-53.79 -107.44,-85.12 -178.43,-98.21 -41.91,-7.72 -88.89,-10.08 -131.4,-12.08 -76.11,-3.56 -152.66,-4.32 -228.82,-4.32l-197.58 0z"/>
  <path class="fil0" d="M1193.3 3965.08l-983.7 0 0 -1303.76 983.7 0 0 1303.76zm0 7181.64l-983.7 0 0 -6104.82 983.7 0 0 6104.82zm2999.34 -5720c50.33,-39.93 102.33,-77.75 155.87,-113.33 402.48,-267.61 870.04,-371.16 1348.65,-371.16 624.4,0 1203.8,188.33 1602.55,690.68 425.91,536.58 518.34,1318.89 518.34,1983.27l0 3530.54 -983.84 0 0 -3540.57c0,-397.55 -40.15,-1032.5 -312.57,-1343.9 -216.45,-247.42 -497.69,-336.22 -819.53,-336.22 -381.14,0 -764.32,83.07 -1030.76,376.14 -270.05,297.1 -413.5,667.68 -479.92,1059.22l0 3785.33 -983.85 0 0 -6104.82 985.57 0 -0.51 384.82zm9166.7 -21.03l0 -2745.07 983.79 0 0 8486.1 -969.53 0 -3.92 -323.58c-71.26,48.6 -145.13,93.27 -221.15,134.13 -390.41,209.74 -824.43,294.16 -1265.02,294.16 -728.69,0 -1339.61,-281.79 -1774.8,-872.85 -462.41,-628.04 -605.13,-1419.96 -605.13,-2184.6l0 -104.61c0,-781.66 142.11,-1593.78 604.43,-2242.39 432.35,-606.53 1044.06,-904.75 1785.52,-904.75 450.48,0 887.67,97.48 1274.68,333.85 65.76,40.15 129.51,83.43 191.13,129.61zm3548.41 2866.64l0 26.26c0,527.85 133.34,1017.04 475.25,1427.65 305.01,366.35 683.76,541.43 1160.04,541.43 273.58,0 541.85,-51.44 795.75,-153.53 222.18,-89.36 432.48,-214.54 596.97,-390.64l302.98 -324.42 557.75 807.54 -190.16 209.88c-236.59,261.13 -530.46,457.52 -850.64,601.59 -379.96,171.02 -798.5,233.34 -1212.65,233.34 -749.21,0 -1378.13,-299.62 -1873.71,-857.37 -524.97,-590.81 -745.34,-1313.58 -745.34,-2095.47l0 -318.78c0,-796.77 209.98,-1547.05 736.76,-2158.63 498.65,-578.92 1142.23,-878.95 1907.2,-878.95 658.53,0 1247.81,213.05 1694.94,708.21 462.98,512.66 625.19,1174.41 625.19,1851.09l0 770.8 -3980.33 0zm7462.47 -1093.59l1535.86 -2136.84 1220.25 0 -2150.74 2982.74 2250.18 3122.08 -1214.52 0 -1645.23 -2277.18 -1640.61 2277.18 -1214.8 0 2250.09 -3122.08 -2150.65 -2982.74 1219.93 0 1540.24 2136.84zm-11010.88 2213.89l0 -2416.2c-110.07,-291.49 -278.34,-546.84 -511.26,-755.6 -259.5,-232.54 -622.11,-294.8 -959.63,-294.8 -437.84,0 -764.23,162.35 -1001.34,534.58 -303.34,476.12 -389.8,1073.71 -389.8,1628.76l0 104.61c0,530.93 78.53,1124.41 380.33,1574.42 240.66,358.94 576.65,499.27 1000.87,499.27 336.5,0 681.62,-61.24 964.12,-254.18 232.3,-158.57 403.38,-364.8 516.71,-620.86zm3641.21 -2104.23l2896.45 0.19c-27.04,-348.67 -132.45,-675.52 -362.42,-949.81 -252.04,-300.53 -582,-412.75 -966.63,-412.75 -439.29,0 -809.19,139.5 -1109.78,465.27 -243.26,263.64 -383.22,557.19 -457.62,897.1zm23346.21 -979.65c0,-708.21 -135.2,-1446.78 -594.26,-2009.1 -417.47,-511.4 -992.85,-690.02 -1635.63,-690.02 -639.54,0 -1210.54,178.34 -1623.99,688.8 -456.32,563.3 -590.03,1303 -590.03,2010.32l0 1172.78c0,709.65 133.02,1455.73 592.22,2020.39 415.97,511.53 990.7,689.4 1632.44,689.4 639.88,0 1214.71,-176.2 1629.6,-686.61 458.7,-564.32 589.65,-1314.47 589.65,-2023.18l0 -1172.78zm-6725.57 4886.89l-1116.35 0 0 -8590.37 1116.35 0 0 8590.37zm7161.23 -1208.87l1362.97 1329.77 -823.31 738.93 -1333.08 -1278.74c-210.95,141.08 -438.96,254.55 -678.46,339.3 -379.67,134.37 -781.1,191.6 -1183.03,191.6 -968.73,0 -1829.96,-315.79 -2466.81,-1065.65 -658.07,-774.86 -879.42,-1765.32 -879.42,-2760.45l0 -1162.1c0,-992.75 220.28,-1980.42 872.7,-2756.25 633.5,-753.27 1494.12,-1069.85 2462.89,-1069.85 968.97,0 1827.31,318.96 2463.98,1068.26 658.35,774.76 882.3,1762.24 882.3,2757.84l0 1162.1c0,533.55 -65.01,1070.13 -231.05,1578.67 -107.03,327.92 -254.69,641.98 -449.68,926.57zm3195.78 4249.53l-14366.03 0 0 -14174.34 14366.03 0 0 14174.34z"/>
  <path class="fil1" d="M54941.03 2319.87l343.66 0 0 1410.2 661.25 0 0 -1410.2 343.66 0 0 1410.2 142.21 0 0 656.51 -286.78 0 0 -369.73 -1204 0 0 -1696.98zm1731.34 0l319.96 0 0 1129.74 687.32 -1129.74 341.29 0 0 1696.98 -319.96 0 0 -1111.57 -687.32 1111.57 -341.29 0 0 -1696.98zm2706.23 1497.89l0 199.09 -336.55 0 0 -199.09c-271.38,-9.87 -462.56,-77.02 -574.35,-200.66 -111.79,-124.04 -167.49,-278.88 -167.49,-464.93 0,-195.93 58.47,-352.75 174.99,-471.26 116.93,-118.5 305.74,-182.89 566.85,-192.76l0 -168.28 336.55 0 0 168.28c269.79,9.87 460.59,76.24 573.16,199.09 112.58,122.45 168.67,278.08 168.67,466.11 0,186.84 -56.09,341.69 -167.88,464.93 -112.18,122.85 -303.37,189.61 -573.95,199.48zm0 -286.78c89.67,0 167.09,-15.01 231.87,-45.03 64.39,-30.02 110.21,-70.31 137.47,-121.27 27.25,-50.56 40.68,-124.82 40.68,-222.78 0,-244.52 -136.67,-366.97 -410.02,-366.97l0 756.05zm-336.55 0l0 -756.05c-144.97,0 -249.25,31.99 -313.64,96.38 -64.39,64.39 -96.39,161.56 -96.39,291.52 0,245.3 136.68,368.15 410.03,368.15zm1352.13 485.87l0 -1696.98 549.46 0c208.17,0 343.66,8.3 406.86,25.28 97.18,25.68 178.55,80.98 244.12,166.3 65.57,85.33 98.36,195.54 98.36,330.63 0,104.28 -18.96,191.58 -56.49,262.68 -37.92,71.11 -85.72,126.8 -143.78,167.49 -58.07,40.29 -117.32,67.15 -177.36,80.19 -81.77,16.19 -199.88,24.49 -354.73,24.49l-222.78 0 0 639.92 -343.66 0zm343.66 -1410.2l0 483.5 186.84 0c134.7,0 224.37,-9.09 269.79,-26.86 45.43,-17.78 80.98,-45.43 106.66,-83.75 25.67,-37.92 38.71,-81.76 38.71,-132.32 0,-62.02 -18.17,-112.98 -54.12,-153.27 -36.34,-40.29 -81.77,-65.57 -137.46,-75.84 -40.69,-7.51 -122.46,-11.46 -245.7,-11.46l-164.72 0zm1134.86 571.98c0,-173.01 26.07,-318.38 77.82,-436.09 38.32,-86.51 91.25,-164.33 158.01,-233.06 66.75,-68.73 139.83,-119.69 219.23,-153.27 105.86,-44.63 227.92,-67.15 366.18,-67.15 250.43,0 450.31,77.82 600.81,233.06 150.11,155.63 225.16,371.71 225.16,648.61 0,274.54 -74.66,489.42 -223.58,644.27 -148.92,155.24 -348.4,232.66 -597.65,232.66 -252.42,0 -453.48,-77.03 -602.4,-231.48 -148.92,-154.05 -223.58,-366.57 -223.58,-637.55zm353.15 -11.45c0,192.37 44.63,338.13 133.51,437.67 88.88,99.15 201.85,148.92 338.53,148.92 137.07,0 249.25,-49.38 337.34,-147.73 87.69,-98.76 131.54,-246.49 131.54,-443.6 0,-194.75 -42.66,-340.11 -128.38,-435.7 -85.33,-95.99 -198.69,-143.79 -340.5,-143.79 -141.42,0 -255.58,48.59 -342.09,145.37 -86.5,97.17 -129.95,243.32 -129.95,438.86zm1561.49 -847.31l678.63 0c134.7,0 234.64,5.53 300.6,16.59 66.37,11.46 125.22,34.76 177.36,69.92 52.15,35.55 95.6,82.56 130.36,141.42 34.76,58.85 52.14,125.21 52.14,198.29 0,79 -21.33,152.08 -63.99,218.05 -42.66,66.36 -100.73,115.74 -173.81,148.92 103.1,30.42 182.1,81.77 237.8,154.45 55.3,72.68 82.95,158.01 82.95,256.36 0,77.43 -17.77,152.48 -53.72,225.56 -35.94,73.07 -84.93,131.54 -147.34,175.38 -62.02,43.45 -138.65,70.31 -229.9,80.58 -56.88,5.93 -194.74,9.88 -413.18,11.46l-577.9 0 0 -1696.98zm343.66 282.04l0 391.07 224.37 0c133.11,0 216.07,-1.98 248.46,-5.93 58.46,-6.71 104.68,-26.86 138.25,-60.44 33.58,-33.57 50.17,-77.42 50.17,-131.93 0,-52.54 -14.62,-94.8 -43.45,-127.59 -28.84,-32.79 -71.89,-52.54 -128.78,-59.25 -33.97,-3.95 -131.54,-5.93 -292.31,-5.93l-196.71 0zm0 673.1l0 455.06 317.59 0c123.24,0 201.85,-3.55 235.03,-10.27 50.96,-9.48 92.43,-32 124.43,-67.94 32,-36.34 48.19,-84.14 48.19,-144.58 0,-51.35 -12.24,-94.41 -37.13,-129.96 -24.49,-35.55 -60.44,-61.62 -107.05,-77.81 -46.61,-16.2 -148.13,-24.5 -304.16,-24.5l-276.9 0zm2778.52 741.84l-370.13 0 -146.55 -386.32 -680.61 0 -141.02 386.32 -363.41 0 658.88 -1696.98 363.02 0 679.82 1696.98zm-628.07 -673.1l-235.83 -628.07 -229.1 628.07 464.93 0zm1825.35 673.1l0 -708.65 -69.52 0c-108.63,0 -184.87,16.19 -229.51,48.58 -44.63,32 -120.47,128.78 -228.31,289.55l-245.7 370.52 -409.63 0 206.99 -331.02c81.37,-131.54 146.55,-223.58 194.74,-276.12 48.59,-52.93 109.42,-100.33 182.1,-141.81 -157.61,-24.88 -271.37,-79.79 -341.29,-165.11 -69.92,-85.32 -105.08,-187.24 -105.08,-306.14 0,-103.49 26.08,-195.13 78.22,-274.93 52.14,-79.79 120.87,-133.51 206.19,-160.77 85.33,-27.25 212.92,-41.08 382.77,-41.08l721.69 0 0 1696.98 -343.66 0zm0 -1410.2l-267.42 0c-135.89,0 -225.16,3.16 -267.82,9.09 -42.66,6.32 -79.8,27.25 -110.61,62.8 -30.81,35.56 -46.21,81.77 -46.21,139.05 0,59.65 15.01,107.05 44.63,142.2 29.63,35.16 67.55,56.89 113.37,65.58 45.82,8.29 139.44,12.64 280.46,12.64l253.6 0 0 -431.36zm1729.37 1410.2l0 -1410.2 -502.46 0 0 -286.78 1346.21 0 0 286.78 -500.09 0 0 1410.2 -343.66 0zm1066.14 0l0 -1696.98 1256.14 0 0 286.78 -912.48 0 0 376.85 848.49 0 0 286.77 -848.49 0 0 459.8 945.66 0 0 286.78 -1289.32 0zm1409.01 0l585.8 -884.83 -531.29 -812.15 400.15 0 334.18 505.22 334.18 -505.22 400.94 0 -532.48 812.55 584.62 884.43 -411.61 0 -376.05 -574.74 -376.45 574.74 -411.99 0zm1752.67 0l0 -1696.98 343.66 0 0 668.37 668.36 0 0 -668.37 343.66 0 0 1696.98 -343.66 0 0 -741.84 -668.36 0 0 741.84 -343.66 0zm1716.33 -1696.98l319.96 0 0 1129.74 687.32 -1129.74 341.29 0 0 1696.98 -319.96 0 0 -1111.57 -687.32 1111.57 -341.29 0 0 -1696.98zm1703.69 0l343.66 0 0 722.88c76.24,-7.9 127.98,-27.26 154.84,-59.25 26.86,-31.61 68.74,-119.69 124.83,-264.27 70.7,-183.68 142.2,-298.23 213.7,-342.87 71.1,-44.64 185.26,-67.15 343.27,-67.15 7.9,0 24.49,-0.4 49.77,-1.19l0 253.6 -48.59 -1.18c-70.31,0 -121.66,8.69 -154.05,26.07 -32.4,17.38 -58.47,43.84 -78.61,79.39 -20.15,35.56 -49.77,108.63 -88.88,219.24 -20.94,58.85 -43.45,107.84 -67.94,147.34 -24.1,39.5 -67.15,76.63 -128.78,111.39 76.24,21.33 139.05,65.18 188.82,130.75 49.77,65.57 104.28,158.01 163.54,277.69l231.08 464.54 -402.92 0 -203.43 -436.88c-3.16,-6.32 -9.87,-18.18 -19.75,-35.95 -3.95,-5.93 -18.17,-32.79 -42.66,-79.79 -43.45,-83.75 -79,-135.89 -106.65,-156.82 -28.05,-20.94 -70.32,-31.61 -127.59,-32.4l0 741.84 -343.66 0 0 -1696.98zm2970.5 1696.98l-370.13 0 -146.55 -386.32 -680.61 0 -141.02 386.32 -363.41 0 658.88 -1696.98 363.02 0 679.82 1696.98zm-628.07 -673.1l-235.83 -628.07 -229.1 628.07 464.93 0zm4319.87 673.1l-370.13 0 -146.55 -386.32 -680.61 0 -141.02 386.32 -363.41 0 658.88 -1696.98 363.02 0 679.82 1696.98zm-628.07 -673.1l-235.83 -628.07 -229.1 628.07 464.93 0zm815.7 -1023.88l343.66 0 0 722.88c76.24,-7.9 127.98,-27.26 154.84,-59.25 26.86,-31.61 68.74,-119.69 124.83,-264.27 70.7,-183.68 142.2,-298.23 213.7,-342.87 71.1,-44.64 185.26,-67.15 343.27,-67.15 7.9,0 24.49,-0.4 49.77,-1.19l0 253.6 -48.59 -1.18c-70.31,0 -121.66,8.69 -154.05,26.07 -32.4,17.38 -58.47,43.84 -78.61,79.39 -20.15,35.56 -49.77,108.63 -88.88,219.24 -20.94,58.85 -43.45,107.84 -67.94,147.34 -24.1,39.5 -67.15,76.63 -128.78,111.39 76.24,21.33 139.05,65.18 188.82,130.75 49.77,65.57 104.28,158.01 163.54,277.69l231.08 464.54 -402.92 0 -203.43 -436.88c-3.16,-6.32 -9.87,-18.18 -19.75,-35.95 -3.95,-5.93 -18.17,-32.79 -42.66,-79.79 -43.45,-83.75 -79,-135.89 -106.65,-156.82 -28.05,-20.94 -70.32,-31.61 -127.59,-32.4l0 741.84 -343.66 0 0 -1696.98zm2496.08 1071.28l331.81 101.91c-50.95,186.84 -135.88,325.49 -254.38,416.35 -118.51,90.45 -268.61,135.88 -450.72,135.88 -225.55,0 -410.81,-77.03 -556.17,-231.08 -144.97,-154.06 -217.66,-364.6 -217.66,-632.02 0,-282.44 73.08,-502.07 218.84,-658.49 145.76,-156.43 337.74,-234.64 575.54,-234.64 207.77,0 376.44,61.62 506.01,184.47 77.42,72.69 135.09,176.97 173.8,313.25l-338.92 80.58c-20.14,-87.69 -62.02,-157.21 -125.61,-208.17 -63.99,-50.96 -141.42,-76.24 -232.27,-76.24 -126.01,0 -228.32,45.03 -306.53,135.49 -78.61,90.06 -117.71,236.22 -117.71,438.47 0,214.09 38.71,366.96 115.73,457.82 77.43,91.24 177.76,136.67 301.4,136.67 91.25,0 169.86,-28.83 235.43,-86.9 65.57,-58.07 112.97,-148.92 141.41,-273.35zm626.1 625.7l0 -1696.98 1256.14 0 0 286.78 -912.48 0 0 376.85 848.49 0 0 286.77 -848.49 0 0 459.8 945.66 0 0 286.78 -1289.32 0zm2666.33 -625.7l331.81 101.91c-50.95,186.84 -135.88,325.49 -254.38,416.35 -118.51,90.45 -268.61,135.88 -450.72,135.88 -225.55,0 -410.81,-77.03 -556.17,-231.08 -144.97,-154.06 -217.66,-364.6 -217.66,-632.02 0,-282.44 73.08,-502.07 218.84,-658.49 145.76,-156.43 337.74,-234.64 575.54,-234.64 207.77,0 376.44,61.62 506.01,184.47 77.42,72.69 135.09,176.97 173.8,313.25l-338.92 80.58c-20.14,-87.69 -62.02,-157.21 -125.61,-208.17 -63.99,-50.96 -141.42,-76.24 -232.27,-76.24 -126.01,0 -228.32,45.03 -306.53,135.49 -78.61,90.06 -117.71,236.22 -117.71,438.47 0,214.09 38.71,366.96 115.73,457.82 77.43,91.24 177.76,136.67 301.4,136.67 91.25,0 169.86,-28.83 235.43,-86.9 65.57,-58.07 112.97,-148.92 141.41,-273.35zm1711.59 0l331.81 101.91c-50.95,186.84 -135.88,325.49 -254.38,416.35 -118.51,90.45 -268.61,135.88 -450.72,135.88 -225.55,0 -410.81,-77.03 -556.17,-231.08 -144.97,-154.06 -217.66,-364.6 -217.66,-632.02 0,-282.44 73.08,-502.07 218.84,-658.49 145.76,-156.43 337.74,-234.64 575.54,-234.64 207.77,0 376.44,61.62 506.01,184.47 77.42,72.69 135.09,176.97 173.8,313.25l-338.92 80.58c-20.14,-87.69 -62.02,-157.21 -125.61,-208.17 -63.99,-50.96 -141.42,-76.24 -232.27,-76.24 -126.01,0 -228.32,45.03 -306.53,135.49 -78.61,90.06 -117.71,236.22 -117.71,438.47 0,214.09 38.71,366.96 115.73,457.82 77.43,91.24 177.76,136.67 301.4,136.67 91.25,0 169.86,-28.83 235.43,-86.9 65.57,-58.07 112.97,-148.92 141.41,-273.35zm420.68 -1071.28l385.93 0 395.02 878.51 338.13 -878.51 357.48 0 -573.95 1289.72c-62.41,139.84 -126.01,246.09 -190.79,319.17 -64.78,73.08 -148.13,109.42 -250.83,109.42 -101.13,0 -180.13,-6.71 -237.01,-19.75l0 -255.18c48.58,3.16 92.43,4.74 131.54,4.74 79,0 135.88,-14.61 170.25,-43.45 33.97,-29.23 67.15,-92.04 98.36,-188.03l-624.13 -1216.64zm2998.95 1696.98l-370.13 0 -146.55 -386.32 -680.61 0 -141.02 386.32 -363.41 0 658.88 -1696.98 363.02 0 679.82 1696.98zm-628.07 -673.1l-235.83 -628.07 -229.1 628.07 464.93 0zm810.96 673.1l0 -1696.98 549.46 0c208.17,0 343.66,8.3 406.86,25.28 97.18,25.68 178.55,80.98 244.12,166.3 65.57,85.33 98.36,195.54 98.36,330.63 0,104.28 -18.96,191.58 -56.49,262.68 -37.92,71.11 -85.72,126.8 -143.78,167.49 -58.07,40.29 -117.32,67.15 -177.36,80.19 -81.77,16.19 -199.88,24.49 -354.73,24.49l-222.78 0 0 639.92 -343.66 0zm343.66 -1410.2l0 483.5 186.84 0c134.7,0 224.37,-9.09 269.79,-26.86 45.43,-17.78 80.98,-45.43 106.66,-83.75 25.67,-37.92 38.71,-81.76 38.71,-132.32 0,-62.02 -18.17,-112.98 -54.12,-153.27 -36.34,-40.29 -81.77,-65.57 -137.46,-75.84 -40.69,-7.51 -122.46,-11.46 -245.7,-11.46l-164.72 0zm1246.66 -286.78l343.66 0 0 677.85 457.82 0c120.08,0 223.58,16.59 310.08,49.37 86.51,32.79 158.8,91.25 216.87,175.78 57.67,84.54 86.5,181.71 86.5,291.52 0,114.95 -30.02,213.71 -90.06,297.05 -60.44,82.96 -127.19,137.86 -201.06,164.72 -73.47,27.26 -181.31,40.69 -323.12,40.69l-800.69 0 0 -1696.98zm343.66 1410.2l334.18 0c106.26,0 180.52,-5.13 222.79,-15.41 41.87,-10.27 79.39,-33.97 112.18,-70.7 32.79,-36.74 48.98,-81.38 48.98,-134.31 0,-75.05 -26.86,-131.54 -80.19,-169.06 -53.72,-37.53 -150.5,-56.09 -289.94,-56.09l-348 0 0 445.57zm1267.99 -1410.2l343.66 0 0 1696.98 -343.66 0 0 -1696.98zm-17309.46 2194.7l0 -2223.14 255.97 0 0 2223.14 -255.97 0z"/>
 </g>
</svg>
